<svg width="745" height="621" viewBox="0 0 745 621" fill="none" xmlns="http://www.w3.org/2000/svg">
<g clip-path="url(#clip0)">
<path opacity="0.1" d="M529.482 620.992C571.516 620.992 605.591 617.633 605.591 613.49C605.591 609.346 571.516 605.987 529.482 605.987C487.448 605.987 453.373 609.346 453.373 613.49C453.373 617.633 487.448 620.992 529.482 620.992Z" fill="#222222"/>
<path d="M241.085 580.557C241.085 580.557 276.898 578.398 272.676 603.497C272.676 603.497 273.514 607.949 269.492 609.946C269.492 609.946 269.433 608.083 265.819 608.714C264.535 608.934 263.23 608.999 261.93 608.907C260.173 608.785 258.504 608.095 257.174 606.94C257.174 606.94 247.103 602.784 243.193 586.324C243.193 586.324 240.291 582.739 240.41 581.811L246.45 584.394C246.45 584.394 244.387 588.758 246.013 592.379C246.013 592.379 246.206 584.557 247.371 584.735C247.601 584.773 250.51 586.22 250.51 586.22C250.51 586.22 246.955 593.812 249.634 599.333C249.634 599.333 248.617 589.975 251.615 586.769L255.875 589.255C255.875 589.255 251.719 597.099 254.539 603.497C254.539 603.497 253.797 593.678 256.765 589.856L260.624 592.825C260.624 592.825 256.721 600.558 259.103 605.871C259.103 605.871 259.407 594.435 261.456 593.574C261.456 593.574 264.832 596.543 265.344 597.775C265.344 597.775 262.673 603.385 264.327 606.346C264.327 606.346 265.344 598.732 266.183 598.695C266.183 598.695 269.537 603.742 269.893 607.2C269.893 607.2 269.745 602.057 266.991 598.213C266.991 598.213 270.242 598.769 272.142 600.877C272.142 600.877 271.615 597.307 266.168 596.996C266.168 596.996 263.392 593.174 262.643 592.936C262.643 592.936 268.068 592.483 271.355 593.945C271.355 593.945 268.461 590.576 261.648 592.105L257.842 589.003C257.842 589.003 264.988 588.023 268.008 589.107C268.008 589.107 264.528 586.138 256.817 588.298L252.677 585.819C252.677 585.819 258.762 584.505 262.391 584.98C262.391 584.98 258.561 582.917 251.46 585.151L248.491 583.823C248.491 583.823 252.944 582.947 254.257 582.806C255.571 582.665 255.63 582.309 255.63 582.309C252.805 581.835 249.905 582.157 247.252 583.236C247.252 583.236 240.974 580.988 241.085 580.557Z" fill="#42B029"/>
<path opacity="0.1" d="M265.752 616.417C279.752 616.417 291.102 614.5 291.102 612.135C291.102 609.77 279.752 607.853 265.752 607.853C251.752 607.853 240.402 609.77 240.402 612.135C240.402 614.5 251.752 616.417 265.752 616.417Z" fill="#222222"/>
<path d="M193.109 563.674C193.109 563.674 213.301 562.457 210.919 576.609C211.045 577.327 210.939 578.066 210.618 578.719C210.296 579.373 209.776 579.907 209.131 580.246C209.131 580.246 209.093 579.199 207.06 579.556C206.337 579.679 205.602 579.714 204.871 579.659C203.878 579.598 202.933 579.209 202.185 578.554C202.185 578.554 196.515 576.201 194.289 566.924C194.289 566.924 192.656 564.898 192.715 564.379L196.129 565.863C196.129 565.863 194.964 568.327 195.877 570.368C195.877 570.368 195.988 565.952 196.619 566.056C196.752 566.056 198.392 566.91 198.392 566.91C198.392 566.91 196.389 571.192 197.903 574.331C197.903 574.331 197.324 569.054 199.016 567.244L201.413 568.646C201.413 568.646 199.075 573.099 200.671 576.676C200.671 576.676 200.263 571.14 201.925 568.988L204.099 570.68C204.099 570.68 201.873 575.036 203.246 578.034C203.246 578.034 203.416 571.585 204.574 571.103C204.574 571.103 206.474 572.78 206.763 573.47C206.763 573.47 205.279 576.632 206.192 578.301C206.192 578.301 206.763 574.012 207.238 573.99C207.238 573.99 209.131 576.832 209.323 578.784C209.229 576.981 208.666 575.234 207.691 573.715C208.783 573.915 209.792 574.431 210.592 575.199C210.592 575.199 210.303 573.188 207.223 573.01C207.223 573.01 205.658 570.85 205.242 570.724C205.242 570.724 208.299 570.464 210.155 571.288C210.155 571.288 208.522 569.388 204.678 570.249L202.533 568.498C202.533 568.498 206.563 567.949 208.27 568.557C208.27 568.557 206.303 566.88 201.954 568.104L199.624 566.702C201.419 566.31 203.258 566.152 205.094 566.234C205.094 566.234 202.941 565.069 198.934 566.331L197.264 565.589C197.264 565.589 199.78 565.091 200.515 565.017C201.25 564.943 201.294 564.735 201.294 564.735C199.7 564.471 198.064 564.653 196.567 565.262C196.567 565.262 193.049 563.919 193.109 563.674Z" fill="#42B029"/>
<path opacity="0.1" d="M207.015 583.89C214.909 583.89 221.308 582.806 221.308 581.47C221.308 580.134 214.909 579.051 207.015 579.051C199.122 579.051 192.723 580.134 192.723 581.47C192.723 582.806 199.122 583.89 207.015 583.89Z" fill="#222222"/>
<path d="M629.872 567.277C629.872 567.277 654.249 565.793 651.392 582.862C651.538 583.729 651.408 584.62 651.019 585.409C650.63 586.197 650.002 586.843 649.225 587.255C649.225 587.255 649.181 585.986 646.724 586.417C645.85 586.566 644.96 586.608 644.075 586.543C642.879 586.465 641.742 585.996 640.84 585.207C640.84 585.207 633.983 582.38 631.319 571.173C631.319 571.173 629.345 568.732 629.426 568.108L633.538 569.86C633.538 569.86 632.135 572.828 633.241 575.3C633.241 575.3 633.374 569.971 634.161 570.105C634.324 570.105 636.298 571.129 636.298 571.129C636.298 571.129 633.879 576.324 635.704 580.034C635.704 580.034 635.014 573.667 637.055 571.485L639.949 573.17C639.949 573.17 637.122 578.513 639.044 582.869C639.044 582.869 638.547 576.19 640.528 573.585L643.155 575.634C643.155 575.634 640.498 580.895 642.116 584.539C642.116 584.539 642.331 576.762 643.726 576.168C643.726 576.168 646.019 578.194 646.368 579.025C646.368 579.025 644.55 582.847 645.678 584.866C645.678 584.866 646.368 579.671 646.94 579.671C646.94 579.671 649.225 583.107 649.463 585.459C649.352 583.284 648.674 581.176 647.496 579.344C648.815 579.594 650.033 580.223 650.999 581.155C650.999 581.155 650.643 578.728 646.925 578.513C646.925 578.513 645.04 575.908 644.535 575.752C644.535 575.752 648.246 575.441 650.472 576.435C650.472 576.435 648.498 574.149 643.86 575.188L641.27 573.073C641.27 573.073 646.131 572.405 648.194 573.14C648.194 573.14 645.819 571.114 640.573 572.591L637.753 570.906C637.753 570.906 641.893 570.016 644.365 570.335C644.365 570.335 641.76 568.932 636.944 570.454L634.925 569.548C634.925 569.548 637.96 568.947 638.851 568.858C639.741 568.769 639.786 568.517 639.786 568.517C637.864 568.196 635.892 568.414 634.087 569.147C634.087 569.147 629.797 567.559 629.872 567.277Z" fill="#42B029"/>
<path opacity="0.1" d="M646.658 591.693C656.187 591.693 663.912 590.387 663.912 588.777C663.912 587.166 656.187 585.86 646.658 585.86C637.129 585.86 629.404 587.166 629.404 588.777C629.404 590.387 637.129 591.693 646.658 591.693Z" fill="#222222"/>
<path d="M605.584 387.11C605.116 384.497 604.846 381.853 604.775 379.199C604.775 376.015 600.448 373.195 600.448 373.195C600.448 373.195 597.777 367.013 595.996 366.1C594.215 365.188 588.716 357.098 588.716 357.098C588.653 355.503 588.072 353.971 587.061 352.735C585.414 350.569 583.909 348.298 582.557 345.937C581.814 345.031 582.185 344.393 581.072 339.117C581.013 338.842 580.946 338.575 580.865 338.323C580.865 338.204 580.79 338.1 580.746 337.981C581.927 336.796 582.751 335.302 583.122 333.671C583.493 332.039 583.398 330.336 582.846 328.756C582.646 328.128 582.282 327.565 581.792 327.124C580.538 326.1 578.534 326.523 577.243 325.55L578.616 319.48C578.943 317.996 579.113 316.118 577.815 315.316C577.327 315.085 576.814 314.913 576.286 314.804C574.06 314.062 572.768 311.71 572.19 309.446C571.633 307.266 571.482 305.002 571.744 302.767C571.997 300.615 572.627 298.522 572.857 296.362C573.276 292.368 572.315 288.351 570.134 284.978C569.286 283.523 568.036 282.343 566.535 281.579C565.162 280.963 563.566 280.837 562.283 280.095C559.522 278.336 559.663 274.158 557.459 271.761C555.255 269.364 551.352 269.371 548.138 270.195C544.925 271.019 541.727 272.421 538.432 272.073C536.309 271.835 534.321 270.87 532.191 270.648C531.581 270.59 530.967 270.617 530.365 270.729V270.663C528.792 270.945 527.345 271.82 526.974 273.312C526.891 273.667 526.856 274.031 526.87 274.395C526.87 275.264 527.078 276.169 527.093 277C527.12 277.33 527.081 277.663 526.978 277.978C526.874 278.293 526.709 278.583 526.492 278.833C526.069 279.286 525.445 279.524 525.007 279.991C524.829 280.17 524.689 280.383 524.596 280.618C524.502 280.853 524.458 281.104 524.466 281.357C524.466 282.678 526.113 283.843 527.219 284.377H527.263C526.966 284.674 526.67 284.986 526.395 285.305C523.225 288.885 521.477 293.503 521.482 298.285C521.509 302.147 522.664 305.917 524.805 309.132C526.947 312.346 529.98 314.865 533.534 316.378L533.378 316.86C533.066 317.814 532.701 318.751 532.287 319.665C531.52 319.407 530.705 319.32 529.9 319.41C529.095 319.499 528.319 319.764 527.627 320.185C525.505 321.669 521.356 321.55 520.251 321.276C519.145 321.001 507.635 319.547 506.707 319.91C505.78 320.274 503.947 318.641 502.752 320.823C501.557 323.005 501.001 324.185 499.784 324.734C498.567 325.283 496.467 327.005 496.749 327.369C497.031 327.732 493.706 329.914 493.706 329.914C493.706 329.914 490.849 332.883 489.194 333.276C487.539 333.669 484.036 335.918 484.036 335.918L479.977 339.094C479.977 339.094 476.942 339.554 477.862 337.462C478.782 335.369 476.2 332.734 476.2 332.734C476.2 332.734 471.042 322.278 471.042 320.118C471.042 317.958 466.805 308.749 466.805 308.749L466.286 308.697L466.048 308.021C465.269 305.832 464.26 303.146 463.488 301.572C462.004 298.567 461.091 298.255 461.091 298.255C461.091 298.255 443.221 284.837 431.615 288.926C420.009 293.015 452.802 305.201 455.748 306.478C456.78 306.923 457.522 308.363 458.041 310.047C455.427 311.308 453.226 313.288 451.696 315.754C451.696 315.754 458.791 331.48 458.976 335.391C459.162 339.302 463.859 350.234 463.859 350.234C463.859 350.234 465.61 358.33 475.094 357.87C475.094 357.87 488.177 360.275 491.034 357.87C493.891 355.466 496.467 353.581 497.854 353.306C498.875 352.971 499.772 352.338 500.429 351.488C500.429 351.488 496.103 378.761 493.981 381.129C491.858 383.496 473.106 414.116 479.836 419.593C485.167 423.721 490.8 427.442 496.689 430.725C497.261 431.007 498.975 428.15 501.424 426.124C501.424 426.636 501.424 427.156 501.424 427.705C501.468 438.599 502.908 455.164 504.897 458.874C507.865 464.329 506.648 474.875 506.648 474.875C508.209 475.609 509.903 476.016 511.627 476.069C511.716 476.426 511.82 476.811 511.917 477.183C513.542 483.32 516.176 492.812 517.52 495.335C519.546 499.157 521.015 511.254 521.015 511.254C521.015 511.254 522.217 523.128 521.757 524.798C521.579 525.428 522.358 530.371 523.583 536.672C522.84 545.199 521.43 561.637 521.193 567.581C521.193 567.693 521.193 567.804 521.193 567.908V568.012C521.197 568.079 521.197 568.146 521.193 568.212C521.193 568.346 521.193 568.465 521.193 568.576C521.17 568.95 521.185 569.325 521.238 569.697C521.329 570.263 521.286 570.842 521.111 571.389C520.586 573.032 519.918 574.626 519.115 576.153C518.777 576.903 518.48 577.671 518.225 578.454C517.483 578.78 516.577 579.574 516.073 581.511C515.152 585.059 513.772 594.87 513.772 594.87C513.772 594.87 513.216 600.873 512.117 602.239C511.019 603.604 509.891 612.146 517.735 613.237C525.579 614.328 528.97 609.081 528.97 609.081L528.696 585.274V585.229C528.854 585.029 528.991 584.813 529.104 584.584V584.524C529.156 584.413 529.215 584.294 529.267 584.161L529.334 583.983L529.452 583.693C529.448 583.659 529.448 583.624 529.452 583.589C530.214 581.309 530.442 578.884 530.12 576.502V576.383V576.198C530.12 576.138 530.12 576.071 530.12 576.012V575.641C530.12 575.596 530.12 575.545 530.12 575.5C530.12 575.342 530.135 575.178 530.165 575.01C530.165 575.01 530.165 574.951 530.165 574.921L530.209 574.632V574.506C530.209 574.409 530.209 574.313 530.269 574.209C530.266 574.184 530.266 574.159 530.269 574.134C530.343 573.793 530.432 573.392 530.529 573.066V572.984L530.64 572.628C530.751 572.249 530.877 571.886 531.011 571.485V571.411C531.011 571.292 531.093 571.173 531.137 571.062V571.017C531.271 570.654 531.412 570.275 531.545 569.964L531.582 569.867L531.701 569.57L531.738 569.481L532.02 568.821L534.194 575.537C534.194 575.537 535.397 580.539 534.751 581.719C534.105 582.899 535.493 587.812 536.406 587.901L535.552 594.083C535.091 597.492 534.816 600.923 534.729 604.361C534.669 604.755 534.61 605.104 534.566 605.341C533.972 608.51 535.397 613.423 535.397 613.423C542.669 622.024 551.337 614.091 551.337 614.091C551.337 614.091 552.346 609.541 551.337 608.636C550.327 607.731 550.78 604.451 550.78 604.451C550.78 604.451 551.24 596.354 551.329 590.446C551.418 584.539 546.498 579.315 546.498 579.315L546.224 579.559C545.326 577.244 544.302 574.543 544.517 573.333C544.888 571.24 543.5 549.147 543.5 549.147C544.013 543.224 544.122 537.273 543.827 531.336C543.946 530.334 544.057 529.347 544.168 528.367C544.725 523.618 545.177 519.558 545.355 517.428V517.176C545.4 516.605 545.422 516.196 545.415 516.003C545.415 515.261 545.415 514.415 545.489 513.488C545.66 510.935 546.06 508.092 546.06 508.092L547.99 496.359C547.99 496.359 549.474 490.63 551.589 487.454L551.841 487.053C551.923 486.912 552.005 486.756 552.094 486.593L552.131 486.526C552.212 486.37 552.301 486.207 552.383 486.036L552.42 485.969C552.717 485.383 553.036 484.708 553.37 483.966C553.37 483.906 553.422 483.854 553.444 483.795L553.697 483.231C553.697 483.157 553.756 483.082 553.793 483.008C553.83 482.934 553.949 482.63 554.031 482.444C554.067 482.37 554.099 482.293 554.127 482.214C554.223 481.992 554.327 481.761 554.424 481.524L554.565 481.183C554.632 481.012 554.706 480.841 554.78 480.671L554.958 480.218C555.01 480.107 555.055 479.995 555.099 479.884L555.3 479.372C555.3 479.298 555.366 479.216 555.396 479.142C555.923 477.828 556.428 476.529 556.88 475.349C557.021 474.978 557.162 474.607 557.288 474.281C562.008 474.57 565.214 474.83 565.214 474.83C565.214 474.83 566.698 464.195 566.223 457.197C565.911 452.418 566.802 446.406 567.388 443.096C567.455 442.733 567.514 442.406 567.574 442.109L567.7 442.213C570.008 444.032 571.663 438.028 571.663 438.028C571.663 438.028 571.039 432.425 570.178 425.634L570.089 424.959C571.419 425.243 572.765 425.448 574.119 425.575C574.119 425.575 574.861 425.508 575.878 425.382C578.69 427.01 581.658 428.353 584.738 429.389L589.643 420.335C590.565 418.458 591.645 416.663 592.872 414.97C594.356 413.152 599.595 407.333 599.506 406.242C599.417 405.151 601.257 398.873 603.098 396.053C604.938 393.233 605.673 387.563 605.584 387.11ZM585.132 394.019C583.195 394.836 581.354 399.385 581.265 400.751C581.176 402.116 579.143 408.112 577.028 408.84C575.076 409.508 571.351 412.936 570.757 413.486C570.149 413.537 569.459 413.619 568.739 413.738C567.93 408.001 567.128 403.252 566.616 402.294C565.132 399.563 568.242 390.836 568.242 390.836C568.242 390.836 568.546 382.019 570.468 379.926C572.39 377.834 571.952 372.557 571.952 372.557C571.952 372.557 572.412 370.375 572.598 369.381C572.783 368.386 575.336 369.381 575.358 369.381C575.358 369.381 580.33 372.104 581.072 376.193C581.814 380.283 587.247 387.377 587.247 387.377C587.247 387.377 586.415 389.834 587.247 391.088C588.078 392.342 587.068 393.203 585.132 394.019Z" fill="url(#paint0_linear)"/>
<path d="M451.903 316.311C453.416 313.816 455.631 311.822 458.271 310.578C460.91 309.335 463.858 308.897 466.745 309.32V319.94H460.296L455.25 318.663L451.903 316.311Z" fill="#4C4981"/>
<path opacity="0.1" d="M451.903 316.311C453.416 313.816 455.631 311.822 458.271 310.578C460.91 309.335 463.858 308.897 466.745 309.32V319.94H460.296L455.25 318.663L451.903 316.311Z" fill="black"/>
<path d="M467.228 312.133L459.324 317.669C459.324 317.669 459.258 316.563 459.057 315.049C458.664 312.185 457.781 307.888 455.874 307.056C452.972 305.78 420.669 293.624 432.127 289.535C443.585 285.446 461.165 298.849 461.165 298.849C461.165 298.849 462.07 299.16 463.517 302.151C464.259 303.724 465.276 306.403 466.04 308.593C466.745 310.567 467.228 312.133 467.228 312.133Z" fill="#FBBEBE"/>
<path d="M530.365 320.66L531.262 320.237L533.786 323.116L531.723 327.517L528.205 326.107L529.021 322.589L530.365 320.66Z" fill="#4C4981"/>
<path d="M518.41 578.409C518.41 578.409 516.139 578.142 515.234 581.682C514.329 585.222 512.963 595.04 512.963 595.04C512.963 595.04 512.421 601.029 511.33 602.395C510.24 603.76 509.156 612.287 516.866 613.371C524.577 614.454 527.938 609.222 527.938 609.222L527.664 585.422L518.41 578.409Z" fill="#444053"/>
<path d="M545.318 579.478C545.318 579.478 550.171 584.673 550.082 590.565C549.993 596.458 549.533 604.54 549.533 604.54C549.533 604.54 549.088 607.812 550.082 608.718C551.077 609.623 550.082 614.165 550.082 614.165C550.082 614.165 541.548 622.084 534.38 613.497C534.38 613.497 532.985 608.592 533.563 605.43C534.142 602.269 535.76 588.057 535.76 588.057L545.318 579.478Z" fill="#444053"/>
<path d="M557.34 470.956C557.34 470.956 552.442 484.656 550.35 487.832C548.257 491.008 546.817 496.738 546.817 496.738L544.91 508.441C544.538 511.058 544.325 513.695 544.272 516.337C544.361 518.972 539.552 557.355 539.552 557.355L531.931 567.069C531.931 567.069 528.577 573.875 529.118 576.717C529.66 579.559 528.755 584.072 527.634 585.43C527.634 585.43 527.456 594.335 527.182 596.317C526.907 598.298 528.183 603.946 527.182 604.94C526.18 605.935 512.844 605.49 512.481 603.849C512.117 602.209 514.113 594.32 514.113 594.32L515.293 586.699C515.293 586.699 517.653 582.528 517.111 581.163C516.57 579.797 518.106 576.628 518.195 576.353C518.284 576.079 520.74 571.634 520.288 569.912C519.835 568.19 523.145 531.573 523.145 531.573L532.488 465.962L557.34 470.956Z" fill="#FBBEBE"/>
<path opacity="0.1" d="M557.34 470.956C557.34 470.956 556.598 473.019 555.581 475.728C553.964 480.003 551.633 485.888 550.35 487.832C548.264 491.008 546.81 496.738 546.81 496.738L544.903 508.448C544.534 511.065 544.323 513.702 544.272 516.345C544.272 517.384 543.574 524.011 542.684 531.647C541.311 543.321 539.552 557.362 539.552 557.362L531.931 567.077C531.931 567.077 531.545 567.819 531.063 568.991C530.105 571.218 528.755 574.832 529.118 576.695C529.66 579.507 528.755 584.042 527.634 585.407C527.634 585.407 527.449 594.313 527.182 596.294C526.914 598.276 528.183 603.916 527.182 604.918C526.18 605.92 512.844 605.467 512.481 603.834C512.117 602.202 514.113 594.306 514.113 594.306L515.293 586.676C515.293 586.676 517.653 582.506 517.104 581.14C516.555 579.775 518.106 576.606 518.195 576.331C518.284 576.057 520.74 571.611 520.288 569.889C519.939 568.576 521.772 547.076 522.625 536.879C522.915 533.673 523.1 531.588 523.1 531.588L531.137 475.142L531.79 470.592L532.443 465.976L557.34 470.956Z" fill="black"/>
<path d="M549.177 607.441C549.258 608.443 536.375 609.898 534.535 608.807C532.695 607.716 534.535 594.194 534.535 594.194L535.374 588.027C534.476 587.931 533.11 583.033 533.741 581.853C534.372 580.673 533.199 575.685 533.199 575.685L531.062 569.006L529.756 564.917C527.634 560.234 524.561 546.876 522.654 536.902C521.452 530.638 520.688 525.703 520.858 525.072C521.311 523.439 520.116 511.551 520.116 511.551C520.116 511.551 518.632 499.476 516.673 495.669C515.345 493.146 512.755 483.669 511.152 477.554C510.336 474.414 509.771 472.158 509.771 472.158C509.771 472.158 523.485 471.008 531.804 470.607C535.626 470.422 538.312 470.399 538.001 470.711C537.689 471.023 537.607 472.685 537.622 475.09C537.659 481.316 538.527 492.27 539.448 495.216C540.717 499.298 541.986 511.543 541.444 512.731C540.902 513.918 541.08 521.807 541.08 521.807C542.015 525.012 542.554 528.319 542.683 531.655C542.973 537.565 542.869 543.488 542.372 549.384C542.372 549.384 543.73 571.44 543.366 573.526C543.002 575.611 546.267 582.149 546.267 583.418C546.267 584.688 547.173 593.311 547.173 593.311C547.173 593.311 549.117 606.447 549.177 607.441Z" fill="#FBBEBE"/>
<path d="M556.338 342.352L554.779 344.037L553.763 345.135L547.826 351.518L532.487 353.247L524.324 351.065L522.306 350.523C522.306 350.523 522.306 346.427 522.669 341.514C523.189 335.213 524.428 327.562 527.389 325.476C528.872 324.316 530.055 322.817 530.84 321.105C531.432 319.925 531.928 318.699 532.324 317.439C532.383 317.276 532.428 317.12 532.48 316.957C533.148 314.757 533.629 312.506 533.919 310.225C533.919 310.225 535.878 309.142 538.602 307.88C545.704 304.563 557.97 299.984 553.703 310.225C553.076 311.725 552.541 313.262 552.101 314.827C552.034 315.057 551.974 315.287 551.922 315.509C550.498 321.209 551.44 324.667 552.501 326.575C552.681 326.905 552.887 327.22 553.117 327.517C553.407 327.915 553.755 328.268 554.149 328.564L555.915 339.777L556.063 340.705L556.338 342.352Z" fill="#FBBEBE"/>
<path opacity="0.1" d="M553.712 310.775C552.903 312.719 554.105 309.186 553.712 310.775C550.476 313.075 542.855 319.628 538.573 319.628C535.679 319.628 534.811 319.101 532.332 317.981C533.082 315.632 533.616 313.22 533.928 310.775C533.928 310.775 559.611 296.615 553.712 310.775Z" fill="black"/>
<path d="M560.249 298.849C560.245 303.736 558.434 308.449 555.163 312.081C551.893 315.714 547.395 318.008 542.535 318.522C541.853 318.589 541.162 318.634 540.465 318.634C536.552 318.634 532.727 317.473 529.473 315.299C526.22 313.125 523.684 310.035 522.187 306.42C520.689 302.805 520.297 298.827 521.061 294.989C521.824 291.151 523.708 287.625 526.475 284.858C529.242 282.091 532.767 280.207 536.605 279.444C540.443 278.68 544.421 279.072 548.036 280.569C551.651 282.067 554.741 284.603 556.915 287.857C559.089 291.11 560.249 294.935 560.249 298.849Z" fill="#FBBEBE"/>
<path opacity="0.1" d="M563.061 386.554L560.242 393.908C560.242 393.908 557.948 394.005 554.372 394.116C542.298 394.502 515.694 394.992 514.506 391.889C514.24 391.103 514.1 390.279 514.091 389.448C513.935 384.72 516.139 377.462 516.139 377.462C516.139 377.462 517.408 362.939 517.408 362.308C517.408 361.677 516.317 351.503 516.317 351.503L518.499 343.339L524.577 339.072C524.577 339.072 527.3 343.25 528.933 343.606C530.565 343.963 532.747 345.974 532.747 345.974C532.747 345.974 538.098 349.239 539.827 347.421C541.556 345.603 554.98 337.617 554.98 337.617L562.06 345.425L563.061 386.554Z" fill="black"/>
<path d="M563.062 387.682L560.242 395.029C560.242 395.029 557.949 395.133 554.372 395.244H554.023C552.479 395.296 550.713 395.348 548.828 395.385C539.233 395.608 526.016 395.667 519.108 394.643C516.51 394.272 514.811 393.737 514.529 393.01C514.373 392.573 514.263 392.12 514.202 391.659C514.158 391.318 514.128 390.917 514.113 390.568C513.958 385.841 516.162 378.583 516.162 378.583C516.162 378.583 517.43 364.06 517.43 363.429C517.43 362.798 516.34 352.623 516.34 352.623L518.521 344.46L522.699 341.536L524.599 340.2C525.238 341.157 525.934 342.074 526.684 342.946C527.27 343.732 528.054 344.349 528.955 344.734C530.595 345.098 532.769 347.102 532.769 347.102C532.769 347.102 538.12 350.367 539.849 348.549C541.163 347.161 549.326 342.167 553.095 339.888C554.253 339.183 555.003 338.745 555.003 338.745L555.952 339.799L562.082 346.553L563.062 387.682Z" fill="white"/>
<path opacity="0.1" d="M467.228 312.133L459.325 317.669C459.325 317.669 459.258 316.563 459.058 315.049C462.961 313.402 465.336 309.758 466.018 308.593C466.746 310.567 467.228 312.133 467.228 312.133Z" fill="black"/>
<path d="M494.997 330.923L493.275 330.463C493.275 330.463 490.455 333.432 488.823 333.825C487.19 334.219 483.747 336.452 483.747 336.452L479.747 339.629C479.747 339.629 476.779 340.089 477.662 337.996C478.545 335.903 476.029 333.276 476.029 333.276C476.029 333.276 470.946 322.842 470.946 320.66C470.946 318.478 466.746 309.32 466.746 309.32C466.746 309.32 461.477 319.576 451.859 316.311C451.859 316.311 458.85 332.007 459.028 335.911C459.206 339.814 463.837 350.701 463.837 350.701C463.837 350.701 465.566 358.783 474.909 358.33C474.909 358.33 487.799 360.727 490.611 358.33C493.424 355.933 495.962 354.048 497.29 353.774C498.618 353.499 499.828 351.963 499.828 351.963V341.172L494.997 330.923Z" fill="#3F3D56"/>
<path opacity="0.1" d="M478.842 341.172C478.842 341.172 481.113 349.618 479.658 350.523L478.842 341.172Z" fill="black"/>
<path opacity="0.1" d="M554.372 395.207C542.298 395.593 515.694 396.075 514.506 392.98C514.24 392.194 514.1 391.369 514.091 390.539L553.533 392.617L554.372 395.207Z" fill="black"/>
<path opacity="0.1" d="M557.34 470.956C557.34 470.956 556.598 473.019 555.582 475.728C550.572 475.424 543.938 475.105 537.638 475.06C535.412 475.06 533.23 475.06 531.167 475.134C526.788 475.268 523.004 475.624 520.592 476.307C517.543 477.246 514.355 477.657 511.167 477.524C510.351 474.385 509.787 472.129 509.787 472.129C509.787 472.129 523.501 470.978 531.82 470.578L532.473 465.962L557.34 470.956Z" fill="black"/>
<path d="M567.96 437.738L566.416 441.004C566.416 441.004 566.201 441.976 565.926 443.52C565.348 446.844 564.442 452.841 564.783 457.62C565.236 464.611 563.782 475.223 563.782 475.223C563.782 475.223 530.388 472.411 520.592 475.223C510.796 478.036 505.973 475.223 505.973 475.223C505.973 475.223 507.16 464.7 504.251 459.253C502.27 455.542 500.875 438.978 500.83 428.083C500.83 423.059 501.082 419.252 501.713 418.48C503.709 416.031 512.236 391.526 512.236 391.526L514.18 391.63L519.375 391.904L548.91 393.463L553.548 393.708L554.038 395.192L567.96 437.738Z" fill="#444053"/>
<path d="M582.66 426.844L582.934 429.753C582.934 429.753 568.308 424.988 569.05 419.133C569.792 413.278 569.05 413.938 569.05 413.938L580.804 414.933L582.66 426.844Z" fill="#4C4981"/>
<path opacity="0.1" d="M582.66 426.844L582.934 429.753C582.934 429.753 568.308 424.988 569.05 419.133C569.792 413.278 569.05 413.938 569.05 413.938L580.804 414.933L582.66 426.844Z" fill="black"/>
<path opacity="0.1" d="M488.601 343.517C490.094 344.786 491.854 345.702 493.751 346.197C493.202 346.077 492.691 345.822 492.267 345.454C491.22 344.712 490.226 343.903 489.217 343.117C488.4 342.478 487.384 341.417 486.382 341.157C487.038 342.019 487.781 342.81 488.601 343.517Z" fill="black"/>
<path opacity="0.1" d="M488.823 347.339C489.293 347.871 489.674 348.475 489.951 349.128C490.419 350.975 490.391 352.913 489.869 354.746L487.524 349.091C487.116 348.126 486.708 347.161 486.218 346.241C486.003 345.848 484.653 344.208 484.808 343.866C485.224 342.901 488.385 346.798 488.823 347.339Z" fill="black"/>
<path opacity="0.1" d="M554.253 378.657C555.852 378.464 557.347 377.764 558.52 376.661C556.108 376.965 553.823 377.915 551.448 378.412C549.243 378.925 546.932 378.711 544.858 377.804C547.589 379.14 551.344 379.184 554.253 378.657Z" fill="black"/>
<path opacity="0.1" d="M547.433 362.041C547.001 362.105 546.561 361.996 546.209 361.737C544.398 360.698 542.612 359.614 540.851 358.486C539.137 357.38 537.066 356.26 535.604 354.865C539.204 358.115 542.558 360.861 547.433 362.041Z" fill="black"/>
<path opacity="0.1" d="M552.464 381.292C553.415 381.335 554.368 381.258 555.299 381.062C556.241 380.866 557.074 380.319 557.629 379.533C557.292 379.455 556.939 379.511 556.642 379.689C553.767 380.899 550.609 381.277 547.529 380.78C549.006 381.411 550.898 381.284 552.464 381.292Z" fill="black"/>
<path opacity="0.1" d="M535.278 423.43C533.388 424 531.447 424.38 529.482 424.565C527.953 424.636 526.421 424.606 524.896 424.476L517.475 424.009L513.765 423.771C513.327 423.771 511.538 423.771 512.421 422.888C512.867 422.458 515.345 422.732 515.983 422.71C517.215 422.671 518.452 422.648 519.694 422.643C522.15 422.643 524.614 422.643 527.07 422.792C529.823 422.925 532.532 423.133 535.278 423.43Z" fill="black"/>
<path opacity="0.1" d="M526.677 427.104C525.416 427.052 523.79 427.801 522.492 427.964C521.039 428.136 519.575 428.193 518.113 428.135C515.221 428.066 512.364 427.483 509.676 426.413C515.338 426.703 521.015 426.873 526.677 427.104Z" fill="black"/>
<path opacity="0.1" d="M510.781 430.992C511.33 431.103 511.871 431.252 512.399 431.438C515.531 432.328 518.863 431.542 522.046 430.755C521.252 431.95 519.82 432.462 518.388 432.788C516.058 433.379 513.63 433.467 511.264 433.048C510.522 432.9 508.659 432.633 508.295 431.861C507.687 430.725 510.084 430.881 510.781 430.992Z" fill="black"/>
<path opacity="0.1" d="M528.34 436.848C529.279 437.04 530.205 437.288 531.115 437.59C534.64 438.466 538.298 437.263 541.838 436.454C546.093 435.488 550.457 435.084 554.817 435.252C554.038 435.252 552.799 435.935 552.035 436.165C551.033 436.469 550.016 436.751 548.999 437.004C547.003 437.493 544.977 437.894 542.937 438.184C538.817 438.779 534.648 438.961 530.492 438.725C528.592 438.621 525.297 438.814 523.672 437.857C525.077 437.022 526.715 436.668 528.34 436.848Z" fill="black"/>
<path opacity="0.1" d="M529.668 324.92C529.668 324.92 529.846 333.276 528.488 337.091C528.057 338.278 527.39 340.467 526.662 342.924C525.868 345.647 525 348.697 524.332 351.087C523.664 353.477 523.219 355.08 523.219 355.08C523.219 355.08 520.154 380.045 519.36 391.941C519.36 392.149 519.36 392.364 519.316 392.565C519.271 393.233 519.197 393.93 519.086 394.65C517.319 406.465 507.13 424.684 503.709 426.139C502.643 426.628 501.668 427.299 500.83 428.12C500.83 423.096 501.082 419.289 501.713 418.517C503.709 416.068 512.236 391.563 512.236 391.563L514.18 391.667C514.136 391.325 514.106 390.925 514.091 390.576C513.935 385.849 516.139 378.591 516.139 378.591C516.139 378.591 517.408 364.067 517.408 363.436C517.408 362.805 516.318 352.631 516.318 352.631L518.499 344.467L522.677 341.543C523.197 335.243 524.436 327.591 527.397 325.506C528.88 324.345 530.063 322.846 530.848 321.135C531.434 321.216 530.365 320.697 530.365 320.697L529.668 324.92Z" fill="black"/>
<path d="M531.262 320.237C530.506 319.978 529.702 319.89 528.907 319.98C528.113 320.07 527.348 320.335 526.669 320.756C524.576 322.24 520.495 322.114 519.404 321.847C518.313 321.58 506.974 320.118 506.046 320.482C505.119 320.845 503.323 319.213 502.143 321.394C500.963 323.576 500.421 324.749 499.241 325.291C498.061 325.832 495.969 327.562 496.273 327.925C496.577 328.289 493.305 330.463 493.305 330.463L499.924 351.985C499.924 351.985 495.657 379.206 493.572 381.566C491.486 383.926 472.971 414.51 479.598 419.957C484.845 424.082 490.396 427.804 496.206 431.089C496.948 431.452 499.56 426.554 503.189 425.011C506.818 423.467 518.076 403.044 518.773 391.429C519.471 379.815 522.676 353.952 522.676 353.952C522.676 353.952 526.58 339.792 527.938 335.977C529.296 332.163 529.118 323.806 529.118 323.806L531.262 320.237Z" fill="#3F3D56"/>
<path opacity="0.1" d="M567.96 437.738L566.416 441.004C566.416 441.004 566.201 441.976 565.926 443.519C565.651 443.485 565.393 443.368 565.184 443.186C562.913 441.367 549.6 427.668 548.94 415.504C548.472 406.532 548.695 398.799 548.843 395.355C548.888 394.272 548.932 393.619 548.932 393.478C548.932 393.478 559.277 380.95 558.097 376.513C556.917 372.075 554.194 348.312 554.194 348.312L553.793 345.195L553.103 339.925L551.455 327.176L553.162 327.576C553.452 327.975 553.8 328.327 554.194 328.623L555.96 339.836L562.09 346.59L563.091 387.704L560.271 395.051C560.271 395.051 557.978 395.155 554.402 395.266H554.053L567.96 437.738Z" fill="black"/>
<path d="M573.673 369.87C573.673 369.87 571.135 368.869 570.957 369.87C570.779 370.872 570.319 373.039 570.319 373.039C570.319 373.039 570.772 378.308 568.835 380.394C566.898 382.479 566.609 391.281 566.609 391.281C566.609 391.281 563.551 399.994 564.998 402.717C565.525 403.704 566.342 408.654 567.158 414.591C567.677 418.302 568.189 422.376 568.642 426.102C569.466 432.87 570.082 438.473 570.082 438.473C570.082 438.473 568.442 444.462 566.171 442.644C563.9 440.826 550.587 427.126 549.934 414.962C549.489 406.42 549.667 398.999 549.815 395.34C549.875 393.789 549.934 392.914 549.934 392.914C549.934 392.914 560.279 380.386 559.099 375.941C557.919 371.496 555.195 347.74 555.195 347.74L554.72 344.067L554.208 340.118L554.09 339.25L552.45 326.634C552.739 326.701 562.92 329.001 564.264 330.345C565.607 331.688 573.911 333.61 573.911 333.61C575.163 333.95 576.302 334.619 577.207 335.549C578.113 336.478 578.753 337.633 579.061 338.894C579.143 339.146 579.202 339.413 579.261 339.688C580.352 344.957 580.003 345.588 580.746 346.501C581.488 347.414 573.673 369.87 573.673 369.87Z" fill="#3F3D56"/>
<path opacity="0.1" d="M568.701 426.094C564.991 425.352 559.484 423.638 559.611 419.853C559.722 416.313 563.981 415.036 567.21 414.584C567.729 418.28 568.241 422.369 568.701 426.094Z" fill="black"/>
<path d="M580.211 424.209C580.063 424.528 579.469 424.803 578.623 425.048C576.638 425.52 574.622 425.85 572.59 426.035C572.59 426.035 559.974 425.033 560.152 419.311C560.286 415.207 565.985 414.116 569.183 413.871C569.891 413.805 570.602 413.775 571.313 413.782C571.313 413.782 580.753 423.037 580.211 424.209Z" fill="#FBBEBE"/>
<path opacity="0.1" d="M580.211 424.209C580.063 424.528 579.469 424.803 578.623 425.048C575.336 420.647 570.75 414.999 568.501 414.502L569.184 413.871C569.892 413.805 570.603 413.775 571.313 413.782C571.313 413.782 580.753 423.037 580.211 424.209Z" fill="black"/>
<path d="M577.035 345.892L580.745 346.441C582.085 348.801 583.572 351.074 585.198 353.247C586.195 354.486 586.767 356.013 586.83 357.603C586.83 357.603 592.277 365.677 593.999 366.583C595.721 367.488 598.355 373.663 598.355 373.663C598.355 373.663 602.622 376.475 602.622 379.652C602.698 382.3 602.971 384.94 603.438 387.548C603.535 388.001 602.808 393.633 600.989 396.454C599.171 399.274 597.353 405.493 597.45 406.606C597.546 407.719 592.366 413.508 590.919 415.319C589.711 417.012 588.649 418.804 587.743 420.677L582.934 429.753C582.934 429.753 572.768 414.777 569.05 413.96C569.05 413.96 573.22 409.968 575.306 409.24C577.391 408.513 579.395 402.561 579.484 401.166C579.573 399.771 581.391 395.266 583.291 394.487C585.19 393.708 586.2 392.854 585.383 391.578C584.567 390.301 585.383 387.867 585.383 387.867C585.383 387.867 580.025 380.787 579.298 376.735C578.571 372.683 573.673 369.93 573.673 369.93L570.861 363.028L577.035 345.892Z" fill="#3F3D56"/>
<path opacity="0.1" d="M590.533 379.77C592.587 378.037 595.171 377.057 597.858 376.995C596.136 377.292 594.325 377.67 593.064 378.872C592.568 379.393 592.124 379.96 591.736 380.565C591.305 381.181 587.802 385.633 587.283 384.928C586.415 383.897 589.828 380.372 590.533 379.77Z" fill="black"/>
<path opacity="0.1" d="M582.312 375.474C582.867 375.426 583.4 375.231 583.855 374.908C584.31 374.586 584.671 374.149 584.901 373.641C585.344 372.618 585.617 371.53 585.71 370.42C585.976 368.561 586.35 366.72 586.831 364.906C586.975 364.547 587.036 364.16 587.009 363.775C586.982 363.389 586.868 363.014 586.675 362.679C586.476 362.1 586.207 361.546 585.874 361.032C585.206 361.774 585.013 363.503 584.738 364.497C584.397 365.729 584.085 366.969 583.788 368.208C583.632 368.802 582.401 375.474 582.312 375.474Z" fill="black"/>
<path opacity="0.1" d="M579.099 338.834C578.733 339.313 578.312 339.746 577.844 340.126C576.36 341.306 574.394 342.3 574.208 344.163C574.26 344.768 574.184 345.377 573.985 345.951C573.511 346.768 572.345 346.694 571.418 346.538C570.635 346.467 569.885 346.191 569.244 345.736C568.271 344.905 568.182 343.421 567.44 342.374C566.989 341.834 566.42 341.405 565.777 341.121C565.133 340.837 564.433 340.704 563.73 340.734C562.342 340.69 560.962 341.001 559.574 341.061C558.682 341.106 557.788 341.046 556.91 340.883C556.62 340.838 556.333 340.779 556.049 340.705C555.429 340.552 554.823 340.346 554.238 340.089C553.936 339.968 553.641 339.83 553.355 339.673C552.426 339.196 551.565 338.597 550.795 337.892C549.437 336.645 548.309 334.923 548.42 333.076C548.487 331.94 548.999 330.894 549.163 329.773C549.719 326.567 547.589 323.539 545.281 321.246C544.361 320.333 543.382 319.45 542.461 318.522C541.029 317.201 539.897 315.586 539.144 313.788C538.525 311.874 538.323 309.849 538.551 307.851C538.759 305.824 538.816 303.785 538.721 301.75C538.039 294.537 531.879 289.008 525.72 286.002L525.445 285.861C527.273 283.764 529.522 282.076 532.046 280.907C534.57 279.738 537.312 279.115 540.093 279.078C542.874 279.041 545.632 279.591 548.186 280.693C550.74 281.794 553.033 283.422 554.916 285.47C556.798 287.517 558.227 289.939 559.11 292.577C559.993 295.215 560.309 298.009 560.039 300.778C559.768 303.546 558.917 306.226 557.54 308.643C556.163 311.06 554.292 313.16 552.049 314.804C551.983 315.034 551.923 315.264 551.871 315.487C550.446 321.187 551.389 324.645 552.45 326.552C552.739 326.619 562.921 328.92 564.264 330.263C565.607 331.606 573.911 333.528 573.911 333.528C575.173 333.864 576.321 334.534 577.234 335.468C578.147 336.402 578.791 337.565 579.099 338.834Z" fill="black"/>
<path d="M524.139 280.629C524.548 280.162 525.163 279.924 525.579 279.471C526.863 278.076 525.579 275.798 526.047 273.957C526.551 271.917 529.059 271.026 531.152 271.241C533.245 271.456 535.204 272.421 537.297 272.659C540.547 273.022 543.694 271.612 546.862 270.789C550.031 269.965 553.86 269.92 556.042 272.347C558.224 274.774 558.075 278.907 560.791 280.666C562.045 281.475 563.626 281.564 564.984 282.151C566.47 282.913 567.703 284.092 568.531 285.542C570.681 288.919 571.628 292.922 571.218 296.904C570.988 299.056 570.364 301.149 570.112 303.301C569.856 305.536 570.007 307.799 570.557 309.98C571.129 312.207 572.368 314.611 574.587 315.324C575.1 315.437 575.598 315.608 576.071 315.836C577.355 316.637 577.184 318.522 576.858 319.992L575.537 326.085C576.806 327.049 578.78 326.634 579.989 327.651C580.474 328.093 580.832 328.657 581.028 329.283C581.625 330.987 581.69 332.832 581.214 334.574C580.738 336.315 579.744 337.871 578.364 339.035C576.88 340.215 574.913 341.209 574.728 343.065C574.784 343.67 574.708 344.28 574.505 344.853C574.038 345.67 572.865 345.595 571.937 345.439C571.157 345.368 570.41 345.091 569.771 344.638C568.791 343.807 568.709 342.322 567.967 341.276C567.516 340.737 566.946 340.309 566.303 340.024C565.66 339.74 564.96 339.607 564.257 339.636C562.862 339.591 561.489 339.903 560.094 339.97C556.876 340.102 553.735 338.967 551.344 336.808C549.979 335.554 548.858 333.84 548.962 331.985C549.029 330.857 549.541 329.803 549.704 328.682C550.254 325.484 548.131 322.448 545.823 320.155C543.515 317.862 540.807 315.747 539.679 312.697C538.269 308.919 539.634 304.704 539.256 300.696C538.573 293.475 532.421 287.954 526.254 284.941C524.881 284.236 522.544 282.447 524.139 280.629Z" fill="#444053"/>
<path opacity="0.1" d="M572.672 342.953C571.692 342.115 571.611 340.638 570.869 339.592C570.417 339.052 569.848 338.623 569.205 338.337C568.562 338.052 567.861 337.917 567.158 337.944C565.763 337.9 564.383 338.211 562.995 338.278C559.766 338.42 556.611 337.281 554.216 335.109C552.851 333.862 551.738 332.141 551.842 330.293C551.908 329.157 552.42 328.103 552.584 326.99C553.14 323.784 551.01 320.749 548.702 318.456C546.395 316.163 543.693 314.047 542.558 310.997C541.155 307.227 542.558 303.012 542.142 298.997C541.452 291.776 535.3 286.255 529.141 283.242C527.701 282.537 525.364 280.748 526.959 278.93C527.36 278.462 527.976 278.225 528.391 277.772C529.675 276.384 528.391 274.099 528.866 272.266C528.958 271.901 529.116 271.556 529.334 271.249C527.783 271.538 526.366 272.414 525.987 273.898C525.534 275.739 526.803 278.017 525.52 279.412C525.104 279.865 524.488 280.102 524.08 280.563C522.484 282.381 524.822 284.177 526.262 284.874C532.428 287.887 538.58 293.416 539.263 300.63C539.642 304.645 538.276 308.86 539.686 312.637C540.814 315.68 543.523 317.832 545.831 320.096C548.138 322.359 550.283 325.417 549.712 328.623C549.399 329.708 549.151 330.811 548.97 331.925C548.866 333.773 549.986 335.495 551.352 336.742C553.743 338.915 556.896 340.054 560.123 339.911C561.518 339.844 562.891 339.54 564.286 339.577C564.99 339.55 565.689 339.685 566.332 339.971C566.976 340.256 567.545 340.685 567.997 341.224C568.739 342.271 568.821 343.755 569.8 344.586C570.44 345.037 571.187 345.311 571.967 345.38C572.895 345.551 574.067 345.61 574.535 344.801C574.701 344.471 574.773 344.101 574.742 343.733C573.996 343.659 573.282 343.391 572.672 342.953Z" fill="black"/>
<path d="M464.645 298.849H413.315V248.265H464.682L464.645 298.849ZM463.903 222.58H414.057C414.057 143.973 488.771 148.567 488.771 98.837C488.771 71.4449 466.352 49.5001 438.962 49.5001C411.571 49.5001 389.16 73.1593 389.16 99.6162H339.351C339.328 86.5281 341.889 73.5643 346.887 61.4682C351.885 49.372 359.222 38.3815 368.476 29.1268C377.73 19.8721 388.72 12.5353 400.816 7.53706C412.911 2.53884 425.874 -0.0224593 438.962 2.46828e-05C493.98 2.46828e-05 538.572 43.897 538.572 98.837C538.572 161.02 463.866 168.1 463.866 222.58H463.903Z" fill="white"/>
<path opacity="0.2" d="M111.296 281H97.6347V267.37H111.296V281ZM111.09 260.502H97.8415C97.8415 239.384 117.714 240.614 117.714 227.24C117.707 225.49 117.358 223.759 116.689 222.145C116.019 220.531 115.041 219.066 113.811 217.834C112.58 216.602 111.122 215.627 109.518 214.965C107.915 214.303 106.198 213.966 104.466 213.974C100.967 214.056 97.6358 215.503 95.1713 218.013C92.7067 220.522 91.3006 223.899 91.2481 227.433H78C78.0879 220.41 80.9046 213.703 85.8428 208.759C90.7809 203.814 97.445 201.028 104.398 201C111.352 200.973 118.037 203.707 123.013 208.612C127.989 213.518 130.858 220.202 131 227.224C130.962 243.933 111.09 245.835 111.09 260.471V260.502Z" fill="white"/>
<path opacity="0.2" d="M256.393 437H240.669V421.534H256.393V437ZM256.164 413.683H240.916C240.916 389.644 263.787 391.052 263.787 375.833C263.779 373.842 263.378 371.872 262.608 370.036C261.837 368.2 260.711 366.534 259.295 365.133C257.879 363.732 256.2 362.623 254.355 361.87C252.509 361.118 250.533 360.736 248.54 360.746C244.496 360.819 240.64 362.459 237.786 365.321C234.932 368.183 233.304 372.041 233.248 376.08H218C218.101 368.088 221.343 360.456 227.027 354.829C232.71 349.202 240.38 346.031 248.383 346C256.386 345.969 264.08 349.08 269.808 354.662C275.535 360.245 278.836 367.851 279 375.842C279.026 394.855 256.164 397.029 256.164 413.683Z" fill="white"/>
<path opacity="0.2" d="M299.296 198H287.696V186.866H299.296V198ZM299.125 181.172H287.875C287.875 163.844 304.75 164.851 304.75 153.883C304.743 152.448 304.446 151.027 303.877 149.703C303.308 148.38 302.477 147.178 301.433 146.168C300.388 145.158 299.15 144.358 297.789 143.815C296.428 143.272 294.97 142.996 293.5 143.003C290.523 143.062 287.686 144.248 285.587 146.31C283.488 148.373 282.291 151.151 282.25 154.059H271C270.976 148.232 273.324 142.634 277.527 138.497C281.73 134.36 287.443 132.023 293.41 132C299.378 131.977 305.11 134.269 309.346 138.373C313.583 142.477 315.976 148.056 316 153.883C315.982 167.593 299.125 169.161 299.125 181.172Z" fill="white"/>
<path opacity="0.2" d="M532.128 214H525.94V207.686H532.128V214ZM532.035 204.485H525.999C525.999 194.681 534.998 195.251 534.998 189.043C534.998 188.23 534.842 187.426 534.54 186.677C534.238 185.928 533.796 185.248 533.238 184.677C532.681 184.106 532.02 183.655 531.293 183.351C530.566 183.047 529.788 182.895 529.004 182.904C527.417 182.938 525.904 183.609 524.784 184.775C523.665 185.941 523.026 187.512 523.002 189.157H517C517.07 185.916 518.359 182.832 520.592 180.561C522.825 178.29 525.826 177.013 528.955 177C532.084 176.988 535.094 178.241 537.344 180.494C539.594 182.746 540.906 185.82 541 189.06C541.034 196.768 532.035 197.689 532.035 204.485Z" fill="white"/>
<path opacity="0.2" d="M183.128 71H176.94V64.6861H183.128V71ZM183.035 61.4853H176.999C176.999 51.6812 185.998 52.2512 185.998 46.0425C185.998 45.2304 185.842 44.4264 185.54 43.6771C185.238 42.9277 184.796 42.2479 184.238 41.6769C183.681 41.106 183.02 40.6553 182.293 40.351C181.566 40.0466 180.788 39.8947 180.004 39.904C178.417 39.9379 176.904 40.6086 175.784 41.7748C174.665 42.9411 174.026 44.512 174.002 46.1565H168C168.07 42.9159 169.359 39.8318 171.592 37.5611C173.825 35.2904 176.826 34.0127 179.955 34.0001C183.084 33.9875 186.094 35.2411 188.344 37.4938C190.594 39.7464 191.906 42.8201 192 46.06C192.034 53.7683 183.035 54.689 183.035 61.4853Z" fill="white"/>
<path opacity="0.2" d="M623.125 486H614.874V477.98H623.125V486ZM623.001 473.914H614.999C614.999 461.449 627.008 462.184 627.008 454.297C626.993 452.216 626.142 450.226 624.642 448.764C623.141 447.302 621.114 446.488 619.006 446.5C616.888 446.54 614.869 447.391 613.376 448.873C611.883 450.355 611.032 452.352 611.003 454.442H603C603.093 450.326 604.812 446.408 607.789 443.524C610.766 440.639 614.767 439.016 618.939 439C623.112 438.984 627.125 440.577 630.125 443.438C633.125 446.3 634.874 450.204 635 454.319C635.045 464.156 623.046 465.281 623.046 473.914H623.001Z" fill="white"/>
</g>
<defs>
<linearGradient id="paint0_linear" x1="517.386" y1="617.49" x2="517.386" y2="269.616" gradientUnits="userSpaceOnUse">
<stop stop-color="#808080" stop-opacity="0.25"/>
<stop offset="0.54" stop-color="#808080" stop-opacity="0.12"/>
<stop offset="1" stop-color="#808080" stop-opacity="0.1"/>
</linearGradient>
<clipPath id="clip0">
<rect width="745" height="621" fill="white"/>
</clipPath>
</defs>
</svg>
