<svg width="104" height="24" viewBox="0 0 104 24" fill="none" xmlns="http://www.w3.org/2000/svg">
<path d="M96.6653 15.3319H87.5094V11.0556H96.6653C97.5212 11.0556 98.2592 10.7721 98.7939 10.1371L98.7968 10.1336L98.7997 10.13C99.3022 9.51464 99.5449 8.7618 99.5449 7.91144C99.5449 7.00704 99.2669 6.2306 98.6676 5.66188C98.1122 5.12162 97.433 4.85659 96.6653 4.85659H86.9331C86.073 4.85659 85.3343 5.15053 84.8015 5.80092C84.2953 6.40391 84.0534 7.15224 84.0534 8.00078V16.1085C84.0534 17.0191 84.3191 17.8041 84.9067 18.3773L84.91 18.3805L84.9133 18.3836C85.4851 18.9244 86.1845 19.1857 86.9746 19.1857H96.0889V23.4843H86.9331C86.2535 23.4843 85.5012 23.3556 84.6728 23.0867C83.8879 22.8277 83.1497 22.4114 82.4567 21.8321C81.7932 21.2515 81.2266 20.4952 80.7614 19.55C80.3166 18.6314 80.0806 17.4923 80.0806 16.1085V7.95611C80.0806 7.22453 80.2002 6.42267 80.4495 5.54693L80.4499 5.54561L80.4503 5.54429C80.6915 4.68341 81.0787 3.88955 81.6156 3.16009C82.1553 2.43076 82.8581 1.8136 83.7358 1.31319C84.5892 0.834351 85.6474 0.580322 86.9331 0.580322H96.6653C97.3449 0.580322 98.0899 0.709101 98.9035 0.977468L98.9047 0.977873L98.9059 0.978272C99.7031 1.23704 100.439 1.65947 101.116 2.25088L101.121 2.2549L101.126 2.25882C101.799 2.8225 102.371 3.57597 102.836 4.53534L102.837 4.53699L102.838 4.53864C103.281 5.44061 103.518 6.57103 103.518 7.95611C103.518 8.68762 103.398 9.4973 103.148 10.389C102.908 11.2326 102.515 12.0271 101.962 12.7739L101.962 12.775C101.438 13.4864 100.737 14.0964 99.8433 14.5982L99.8418 14.599L99.8402 14.5999C99.0023 15.0774 97.9521 15.3319 96.6653 15.3319Z" fill="white"/>
<path d="M33.143 23.4843C32.4634 23.4843 31.7112 23.3556 30.8827 23.0867C30.0979 22.8277 29.3597 22.4114 28.6666 21.8321C28.0032 21.2516 27.4365 20.4952 26.9714 19.55C26.5265 18.6314 26.2905 17.4923 26.2905 16.1085C26.2905 15.3767 26.4103 14.5666 26.6603 13.6744C26.9015 12.8135 27.2886 12.0196 27.8256 11.2901C28.3653 10.5608 29.0681 9.94361 29.9458 9.44322C30.7992 8.96442 31.8574 8.71041 33.143 8.71041H42.2989V13.009H33.143C32.283 13.009 31.5443 13.303 31.0115 13.9533C30.5052 14.5563 30.2634 15.3047 30.2634 16.1532C30.2634 17.0593 30.5424 17.8369 31.144 18.406L31.1509 18.4125L31.1581 18.4188C31.7365 18.9315 32.4209 19.1857 33.1845 19.1857H42.8752C43.7312 19.1857 44.4692 18.9022 45.0038 18.2672C45.512 17.6636 45.7549 16.914 45.7549 16.0639V7.95611C45.7549 7.05748 45.4878 6.28077 44.9121 5.69785C44.3637 5.12844 43.6689 4.85659 42.8752 4.85659H31.6028V0.580322H42.8752C43.5549 0.580322 44.2998 0.709101 45.1134 0.977468L45.1147 0.977873L45.1159 0.978272C45.913 1.23704 46.649 1.65947 47.3263 2.25088L47.3309 2.2549L47.3356 2.25882C48.0089 2.8225 48.581 3.57597 49.046 4.53534L49.0468 4.53699L49.0476 4.53864C49.4913 5.44061 49.7277 6.57103 49.7277 7.95611V16.1085C49.7277 16.8401 49.6081 17.6498 49.3583 18.5415C49.1179 19.3851 48.7248 20.1795 48.1723 20.9263L48.1715 20.9274C47.6478 21.6388 46.9468 22.2488 46.0532 22.7506L46.0517 22.7515L46.0502 22.7523C45.2122 23.2298 44.162 23.4843 42.8752 23.4843H33.143Z" fill="white"/>
<path d="M76.056 21.392C76.056 21.6902 76.004 21.967 75.9 22.2226C75.796 22.4781 75.6503 22.7017 75.4631 22.8934C75.2863 23.0744 75.073 23.2182 74.8234 23.3247C74.5737 23.4311 74.3033 23.4844 74.012 23.4844H59.3763C59.0018 23.4844 58.5961 23.4418 58.1592 23.3566C57.7328 23.2608 57.3063 23.117 56.8798 22.9253C56.4637 22.7337 56.0632 22.4888 55.6784 22.1906C55.2935 21.8818 54.9502 21.5145 54.6485 21.0886C54.3573 20.652 54.1232 20.1515 53.9464 19.5872C53.7696 19.0122 53.6812 18.368 53.6812 17.6545V6.41015C53.6812 6.02682 53.7228 5.61687 53.806 5.1803C53.8996 4.73308 54.04 4.29651 54.2273 3.87058C54.4145 3.43401 54.6589 3.01874 54.9606 2.62476C55.2623 2.23078 55.6211 1.88471 56.0372 1.58657C56.4637 1.27777 56.9526 1.03287 57.5039 0.851849C58.0552 0.670831 58.6794 0.580322 59.3763 0.580322H75.8688V4.73308H59.3763C58.8458 4.73308 58.4401 4.87683 58.1592 5.16433C57.8784 5.45183 57.738 5.87775 57.738 6.4421V17.6545C57.738 18.1869 57.8784 18.6022 58.1592 18.9004C58.4505 19.1879 58.8562 19.3316 59.3763 19.3316H71.9992V14.1247H61.2019V9.94H74.012C74.3033 9.94 74.5737 9.99856 74.8234 10.1157C75.073 10.2222 75.2863 10.3712 75.4631 10.5629C75.6503 10.7546 75.796 10.9782 75.9 11.2337C76.004 11.4786 76.056 11.7448 76.056 12.0323V21.392Z" fill="white"/>
<path d="M22.8416 16.7441C22.8416 17.564 22.7376 18.3041 22.5296 18.9643C22.3319 19.6138 22.0667 20.1888 21.7338 20.6892C21.401 21.1897 21.0109 21.6156 20.5636 21.967C20.1163 22.3184 19.6534 22.6059 19.1749 22.8295C18.6964 23.0531 18.2075 23.2182 17.7082 23.3247C17.2193 23.4311 16.7564 23.4844 16.3196 23.4844H0.669659V19.3316H16.3196C17.0997 19.3316 17.703 19.0974 18.1295 18.6288C18.5664 18.1603 18.7848 17.5321 18.7848 16.7441C18.7848 16.3608 18.7276 16.0094 18.6132 15.69C18.4988 15.3705 18.3323 15.0937 18.1139 14.8594C17.9059 14.6252 17.6458 14.4441 17.3338 14.3164C17.0321 14.1886 16.694 14.1247 16.3196 14.1247H6.98891C6.33358 14.1247 5.62624 14.0076 4.86689 13.7733C4.10754 13.5284 3.4002 13.1397 2.74487 12.6073C2.09994 12.0749 1.55903 11.3775 1.12215 10.515C0.695664 9.6525 0.482422 8.59834 0.482422 7.35251C0.482422 6.10668 0.695664 5.05785 1.12215 4.206C1.55903 3.3435 2.09994 2.64605 2.74487 2.11365C3.4002 1.5706 4.10754 1.18194 4.86689 0.947682C5.62624 0.702775 6.33358 0.580322 6.98891 0.580322H20.7976V4.73308H6.98891C6.21916 4.73308 5.61584 4.97266 5.17895 5.45183C4.75247 5.93099 4.53922 6.56455 4.53922 7.35251C4.53922 8.15112 4.75247 8.78468 5.17895 9.25319C5.61584 9.71106 6.21916 9.94 6.98891 9.94H16.3508C16.7876 9.95064 17.2505 10.0145 17.7394 10.1317C18.2283 10.2381 18.712 10.4085 19.1905 10.6428C19.6794 10.877 20.1423 11.1752 20.5792 11.5372C21.0161 11.8886 21.401 12.3145 21.7338 12.815C22.0771 13.3154 22.3475 13.8904 22.5452 14.54C22.7428 15.1895 22.8416 15.9242 22.8416 16.7441Z" fill="white"/>
</svg>
